<svg width="1280" height="720" viewBox="0 0 1280 720" fill="none" xmlns="http://www.w3.org/2000/svg">
  <defs>
    <linearGradient id="sky" x1="0" y1="0" x2="0" y2="1">
      <stop offset="0%" stop-color="#9DC4F7"/>
      <stop offset="55%" stop-color="#5D7FB2"/>
      <stop offset="100%" stop-color="#224066"/>
    </linearGradient>
    <linearGradient id="water" x1="0" y1="0" x2="1" y2="1">
      <stop offset="0%" stop-color="#173A67"/>
      <stop offset="100%" stop-color="#0D2140"/>
    </linearGradient>
  </defs>
  <rect width="1280" height="720" fill="url(#sky)"/>
  <rect y="505" width="1280" height="215" fill="url(#water)"/>
  <g opacity="0.88" fill="#1A2E4E">
    <rect x="110" y="255" width="76" height="250" rx="4"/>
    <rect x="198" y="210" width="90" height="295" rx="4"/>
    <rect x="305" y="164" width="62" height="341" rx="4"/>
    <rect x="381" y="280" width="55" height="225" rx="4"/>
    <rect x="448" y="185" width="85" height="320" rx="4"/>
    <rect x="548" y="232" width="70" height="273" rx="4"/>
    <rect x="638" y="196" width="106" height="309" rx="4"/>
    <rect x="758" y="173" width="64" height="332" rx="4"/>
    <rect x="840" y="216" width="74" height="289" rx="4"/>
    <rect x="931" y="264" width="72" height="241" rx="4"/>
    <rect x="1018" y="184" width="96" height="321" rx="4"/>
  </g>
  <g fill="#132744">
    <rect x="590" y="70" width="18" height="435" rx="4"/>
    <polygon points="599,20 618,72 580,72"/>
    <circle cx="599" cy="96" r="12"/>
  </g>
  <rect y="490" width="1280" height="4" fill="rgba(255,255,255,0.32)"/>
  <rect y="560" width="1280" height="2" fill="rgba(255,255,255,0.25)"/>
</svg>
